<?xml version="1.0" standalone="no"?>
<!DOCTYPE svg PUBLIC "-//W3C//DTD SVG 20010904//EN"
 "http://www.w3.org/TR/2001/REC-SVG-20010904/DTD/svg10.dtd">
<svg version="1.0" xmlns="http://www.w3.org/2000/svg"
 width="288.000000pt" height="288.000000pt" viewBox="0 0 288.000000 288.000000"
 preserveAspectRatio="xMidYMid meet">

<g transform="translate(0.000000,288.000000) scale(0.100000,-0.100000)"
fill="#000000" stroke="none">
<path d="M0 1440 l0 -1440 1440 0 1440 0 0 1440 0 1440 -1440 0 -1440 0 0
-1440z m1817 778 c128 -78 252 -157 275 -177 47 -40 88 -120 88 -171 0 -48
-41 -131 -88 -178 -62 -62 -140 -95 -237 -100 l-83 -4 19 -42 c26 -57 24 -112
-7 -174 -79 -160 -308 -233 -507 -164 -64 23 -559 321 -555 334 5 14 841 817
852 817 5 1 114 -63 243 -141z m358 -545 c-22 -117 -142 -226 -272 -248 l-43
-7 0 45 c0 25 -2 52 -6 60 -4 11 8 16 48 20 73 9 169 59 226 117 26 27 49 49
51 49 2 1 0 -16 -4 -36z m0 -170 c-21 -115 -144 -224 -277 -247 l-38 -7 0 59
0 58 58 12 c82 17 156 57 210 113 26 27 49 49 51 49 2 0 0 -17 -4 -37z m-1197
-186 c131 -78 262 -151 292 -161 81 -27 213 -32 286 -11 86 25 149 60 206 115
l50 49 -5 -41 c-12 -88 -103 -185 -217 -230 -73 -29 -220 -31 -300 -5 -30 10
-172 89 -315 176 l-260 157 -3 53 c-3 46 -1 53 13 47 10 -3 123 -70 253 -149z
m1197 16 c-21 -115 -147 -227 -277 -246 l-38 -6 0 58 0 57 58 12 c82 17 149
53 207 112 27 27 51 50 53 50 2 0 1 -17 -3 -37z m-1213 -175 c128 -78 262
-153 298 -166 177 -65 378 -25 503 100 l50 50 -7 -42 c-9 -58 -30 -95 -82
-146 -117 -113 -309 -144 -470 -75 -28 12 -160 88 -294 170 l-245 148 -3 52
c-2 28 1 51 7 51 5 0 114 -64 243 -142z m1213 5 c-21 -115 -148 -227 -277
-246 l-38 -6 0 58 0 58 58 12 c79 16 151 55 208 112 27 27 50 49 52 49 2 0 1
-17 -3 -37z m-1194 -186 c124 -76 253 -146 285 -158 176 -61 369 -20 497 104
l50 48 -7 -43 c-15 -93 -112 -191 -231 -233 -67 -24 -202 -25 -277 -2 -34 10
-162 81 -320 176 l-263 159 -3 57 -3 58 23 -15 c13 -8 125 -76 249 -151z m-16
-160 c138 -83 267 -154 304 -167 178 -59 367 -21 492 101 l52 50 -6 -35 c-27
-167 -230 -285 -438 -256 -97 14 -119 25 -409 200 l-250 152 0 54 c0 31 3 53
8 51 4 -2 115 -70 247 -150z"/>
<path d="M1464 2058 l-136 -133 169 -102 c194 -117 241 -133 327 -114 93 21
176 98 176 164 0 34 -20 75 -52 103 -21 20 -333 214 -343 214 -2 0 -65 -60
-141 -132z"/>
<path d="M1082 1692 l-143 -137 178 -107 c203 -122 217 -129 288 -129 78 -1
134 20 187 71 70 67 77 138 20 200 -25 27 -363 241 -380 240 -4 -1 -71 -63
-150 -138z"/>
</g>
</svg>
