<?xml version="1.0" standalone="no"?>
<!DOCTYPE svg PUBLIC "-//W3C//DTD SVG 20010904//EN"
 "http://www.w3.org/TR/2001/REC-SVG-20010904/DTD/svg10.dtd">
<svg version="1.0" xmlns="http://www.w3.org/2000/svg"
 width="280.000000pt" height="280.000000pt" viewBox="0 0 280.000000 280.000000"
 preserveAspectRatio="xMidYMid meet">

<g transform="translate(0.000000,280.000000) scale(0.100000,-0.100000)"
fill="#000000" stroke="none">
<path d="M1445 2612 c-55 -54 -201 -194 -325 -313 -124 -119 -344 -330 -490
-471 l-265 -255 -3 -485 c-2 -381 1 -488 10 -496 7 -5 168 -103 358 -218 211
-127 370 -216 410 -229 256 -87 504 -39 677 131 86 85 116 150 121 270 l4 91
70 13 c158 28 314 142 381 280 l32 65 0 530 0 530 -33 67 c-47 96 -125 162
-348 297 -104 63 -254 154 -333 202 -80 49 -150 89 -155 89 -6 0 -56 -44 -111
-98z m438 -179 c170 -104 333 -209 361 -235 29 -25 65 -70 81 -100 41 -73 42
-169 3 -243 -83 -158 -233 -245 -422 -245 l-95 0 31 -57 c27 -52 30 -65 25
-123 -6 -86 -40 -152 -116 -222 -74 -69 -170 -116 -276 -135 -166 -30 -291 4
-515 140 -85 52 -240 145 -343 208 l-188 114 103 100 c57 55 209 201 338 324
129 124 294 282 365 351 72 69 173 167 225 218 52 50 99 92 104 92 5 0 148
-84 319 -187z m467 -740 c-24 -97 -116 -205 -218 -257 -57 -29 -173 -59 -184
-48 -3 4 -8 39 -9 77 l-3 70 61 7 c109 12 238 81 316 168 23 26 44 43 46 38 1
-5 -2 -30 -9 -55z m5 -200 c-29 -160 -188 -301 -368 -328 l-47 -7 0 74 0 75
71 12 c101 19 211 76 284 150 33 34 62 61 64 61 2 0 0 -17 -4 -37z m-1760
-143 c66 -40 194 -118 285 -173 188 -115 269 -152 376 -173 97 -18 157 -18
251 2 129 26 245 91 331 183 l33 36 -4 -40 c-16 -141 -175 -286 -363 -331
-118 -28 -279 -8 -394 48 -24 12 -532 317 -632 380 l-48 30 0 70 0 70 23 -14
c12 -8 76 -48 142 -88z m1761 -81 c-14 -88 -94 -200 -183 -257 -56 -35 -159
-72 -203 -72 l-31 0 3 72 3 72 70 13 c104 19 206 73 279 148 34 35 63 64 65
64 2 1 1 -17 -3 -40z m-1817 -108 c53 -32 190 -116 305 -186 297 -180 387
-212 574 -203 162 8 326 84 417 192 34 41 35 41 35 14 1 -138 -186 -314 -369
-348 -77 -14 -196 -12 -269 5 -82 20 -139 49 -415 217 -128 77 -267 162 -309
187 l-77 46 -1 68 c0 37 3 67 6 67 3 0 49 -26 103 -59z m1811 -138 c-34 -136
-168 -257 -330 -299 -33 -8 -65 -12 -70 -9 -6 3 -10 37 -10 75 l0 69 38 6
c132 22 255 86 334 174 24 27 45 44 47 39 1 -5 -2 -30 -9 -55z m-1815 -83
c595 -368 617 -379 810 -387 197 -8 331 38 459 158 65 60 66 61 66 33 0 -84
-117 -232 -226 -287 -160 -81 -377 -82 -536 -1 -27 14 -153 88 -281 166 -128
78 -269 164 -314 191 l-83 50 0 69 c0 79 -9 78 105 8z m149 -314 c110 -68 233
-142 271 -166 151 -93 291 -140 420 -140 158 0 328 68 435 173 l63 62 -5 -42
c-12 -91 -78 -184 -179 -251 -149 -100 -356 -119 -537 -48 -55 22 -237 129
-609 358 l-113 69 0 71 0 70 26 -17 c15 -9 117 -72 228 -139z"/>
<path d="M1415 2225 c-116 -112 -176 -177 -170 -183 6 -5 107 -68 226 -139
144 -87 234 -135 269 -143 197 -47 426 110 381 261 -21 69 -71 111 -297 249
-118 71 -218 130 -222 130 -4 -1 -88 -79 -187 -175z"/>
<path d="M915 1745 c-123 -118 -186 -187 -180 -193 6 -5 112 -71 238 -147 254
-153 299 -171 411 -162 172 15 314 163 277 289 -23 76 -70 111 -504 369 -26
16 -49 29 -50 29 -1 -1 -87 -83 -192 -185z"/>
</g>
</svg>
