<?xml version="1.0" standalone="no"?>
<!DOCTYPE svg PUBLIC "-//W3C//DTD SVG 20010904//EN"
 "http://www.w3.org/TR/2001/REC-SVG-20010904/DTD/svg10.dtd">
<svg version="1.0" xmlns="http://www.w3.org/2000/svg"
 width="920.000000pt" height="650.000000pt" viewBox="0 0 920.000000 650.000000"
 preserveAspectRatio="xMidYMid meet">
<metadata>
Created by potrace 1.16, written by Peter Selinger 2001-2019
</metadata>
<g transform="translate(0.000000,650.000000) scale(0.100000,-0.100000)"
fill="#000000" stroke="none">
<path d="M4610 5720 l0 -230 250 0 250 0 0 230 0 230 -250 0 -250 0 0 -230z"/>
<path d="M3420 5175 l0 -225 250 0 250 0 0 225 0 225 -250 0 -250 0 0 -225z"/>
<path d="M4020 5175 l0 -225 245 0 245 0 0 225 0 225 -245 0 -245 0 0 -225z"/>
<path d="M4610 5175 l0 -225 250 0 250 0 0 225 0 225 -250 0 -250 0 0 -225z"/>
<path d="M6182 5197 c-96 -153 -133 -281 -134 -457 -1 -118 16 -199 61 -297
l29 -61 -51 -21 c-151 -60 -8 -56 -1894 -59 l-1722 -2 -8 -38 c-4 -20 -7 -107
-7 -192 6 -587 293 -1084 764 -1320 322 -161 722 -211 1240 -154 415 46 791
167 1100 354 403 243 704 575 918 1011 l77 156 125 11 c304 27 464 131 592
386 22 43 35 82 30 85 -5 3 -38 25 -74 48 -103 68 -187 87 -400 87 l-176 1
-11 52 c-34 173 -194 368 -397 486 -5 3 -33 -31 -62 -76z"/>
<path d="M2830 4625 l0 -225 250 0 250 0 0 225 0 225 -250 0 -250 0 0 -225z"/>
<path d="M3420 4625 l0 -225 250 0 250 0 0 225 0 225 -250 0 -250 0 0 -225z"/>
<path d="M4020 4625 l0 -225 245 0 245 0 0 225 0 225 -245 0 -245 0 0 -225z"/>
<path d="M4610 4625 l0 -225 250 0 250 0 0 225 0 225 -250 0 -250 0 0 -225z"/>
<path d="M5200 4625 l0 -225 250 0 250 0 0 225 0 225 -250 0 -250 0 0 -225z"/>
<path d="M2291 2104 l-31 -26 0 -269 c0 -148 -2 -269 -4 -269 -2 0 -27 15 -54
34 -148 99 -363 111 -533 30 -99 -47 -206 -154 -253 -253 -106 -222 -53 -486
131 -650 61 -54 153 -104 223 -120 69 -16 228 -13 291 5 182 53 335 212 380
394 11 43 14 167 14 573 l0 519 -33 29 c-42 38 -89 39 -131 3z m-243 -679
c141 -63 225 -216 201 -366 -17 -107 -94 -210 -194 -259 -43 -22 -64 -25 -150
-25 -85 0 -106 4 -144 24 -150 79 -229 248 -187 397 38 132 134 223 271 258
47 12 143 -2 203 -29z"/>
<path d="M4828 2101 l-33 -29 -3 -694 c-2 -381 0 -708 3 -727 10 -51 45 -81
98 -81 34 0 50 6 71 26 l26 27 0 197 0 197 38 25 c20 14 49 32 63 41 l26 17
184 -207 c289 -328 285 -323 334 -323 73 0 122 63 98 127 -4 12 -106 133 -227
268 -120 135 -217 247 -215 249 2 1 100 65 217 141 153 99 216 145 223 164 26
67 -32 147 -101 138 -24 -3 -128 -65 -328 -196 -161 -105 -298 -191 -303 -191
-5 0 -9 159 -9 401 l0 401 -29 29 c-40 40 -89 40 -133 0z"/>
<path d="M2983 1646 c-84 -20 -137 -45 -208 -99 -142 -108 -214 -256 -215
-437 0 -141 45 -258 139 -362 114 -126 233 -178 406 -178 173 0 290 51 407
178 94 102 138 219 138 365 -1 191 -87 350 -250 460 -107 72 -284 103 -417 73z
m262 -220 c72 -33 126 -84 166 -158 32 -58 34 -70 34 -153 0 -76 -4 -99 -26
-146 -35 -74 -95 -133 -172 -170 -52 -24 -74 -29 -142 -29 -68 0 -90 5 -142
29 -77 37 -137 96 -171 170 -23 47 -27 70 -27 141 0 71 4 94 26 140 84 179
281 255 454 176z"/>
<path d="M4173 1645 c-176 -38 -340 -192 -395 -369 -32 -103 -30 -244 4 -343
59 -167 205 -305 373 -349 65 -18 226 -18 291 0 75 20 169 73 210 119 33 35
36 44 31 81 -12 86 -96 113 -175 55 -96 -71 -227 -89 -336 -48 -113 42 -206
161 -221 284 -15 115 50 255 148 319 135 89 273 83 421 -17 53 -37 99 -36 137
2 23 23 29 38 29 72 0 36 -5 47 -40 79 -117 108 -303 153 -477 115z"/>
<path d="M6290 1653 c-159 -26 -323 -146 -394 -287 -81 -159 -76 -378 11 -529
40 -67 145 -170 212 -205 98 -52 160 -65 290 -60 129 6 183 22 278 85 78 51
99 102 69 162 -29 55 -92 65 -152 24 -81 -55 -134 -73 -216 -73 -99 0 -170 26
-237 86 -27 24 -61 68 -75 97 l-27 52 412 5 411 5 29 33 c34 38 37 78 15 184
-23 105 -62 174 -146 259 -85 87 -165 133 -269 155 -63 13 -156 16 -211 7z
m191 -213 c35 -11 87 -37 114 -58 47 -35 115 -130 115 -159 0 -10 -67 -13
-330 -13 -181 0 -330 2 -330 5 0 3 11 28 25 55 32 63 82 113 145 145 95 48
166 55 261 25z"/>
<path d="M7059 1632 l-34 -30 0 -492 0 -492 28 -24 c40 -34 105 -33 141 2 l26
27 0 256 c0 291 8 341 65 428 64 97 200 162 314 150 31 -4 76 -13 101 -22 51
-18 85 -13 117 17 52 49 34 132 -36 168 -129 65 -369 44 -501 -45 -52 -35 -60
-35 -60 1 0 37 -40 75 -86 81 -36 5 -46 1 -75 -25z"/>
</g>
</svg>
