<?xml version="1.0" standalone="no"?>
<!DOCTYPE svg PUBLIC "-//W3C//DTD SVG 20010904//EN"
 "http://www.w3.org/TR/2001/REC-SVG-20010904/DTD/svg10.dtd">
<svg version="1.0" xmlns="http://www.w3.org/2000/svg"
 width="383.000000pt" height="383.000000pt" viewBox="0 0 383.000000 383.000000"
 preserveAspectRatio="xMidYMid meet">
<metadata>
Created by potrace 1.16, written by Peter Selinger 2001-2019
</metadata>
<g transform="translate(0.000000,383.000000) scale(0.100000,-0.100000)"
fill="#000000" stroke="none">
<path d="M1794 3805 c-34 -17 -107 -82 -234 -210 l-185 -185 220 -220 220
-220 75 6 c97 8 170 -17 234 -82 65 -64 90 -137 82 -234 l-6 -75 206 -206 206
-207 83 6 c73 4 89 2 137 -20 184 -84 232 -302 100 -449 -67 -75 -110 -94
-212 -94 -68 0 -93 5 -125 22 -51 27 -119 100 -140 150 -19 43 -24 127 -12
188 l8 40 -201 200 -200 200 0 -531 0 -531 26 -14 c41 -22 101 -96 118 -146
38 -110 8 -222 -80 -302 -96 -88 -207 -103 -321 -45 -134 69 -192 232 -130
367 26 58 83 119 128 139 l29 13 0 531 0 532 -28 11 c-42 18 -108 89 -132 144
-24 53 -28 144 -10 191 11 30 9 32 -212 253 l-223 223 -583 -582 c-442 -443
-588 -595 -607 -632 -37 -74 -35 -173 4 -241 20 -33 314 -334 883 -902 660
-659 863 -857 898 -872 55 -25 155 -28 208 -6 51 22 1766 1733 1793 1790 26
55 25 156 -2 215 -15 35 -213 238 -872 898 -568 569 -869 863 -902 883 -68 39
-167 41 -241 4z"/>
</g>
</svg>
