<?xml version="1.0" standalone="no"?>
<!DOCTYPE svg PUBLIC "-//W3C//DTD SVG 20010904//EN"
 "http://www.w3.org/TR/2001/REC-SVG-20010904/DTD/svg10.dtd">
<svg version="1.0" xmlns="http://www.w3.org/2000/svg"
 width="185.000000pt" height="180.000000pt" viewBox="0 0 185.000000 180.000000"
 preserveAspectRatio="xMidYMid meet">

<g transform="translate(0.000000,180.000000) scale(0.100000,-0.100000)"
fill="#000000" stroke="none">
<path d="M765 1765 c-556 -103 -871 -693 -650 -1217 34 -80 108 -200 144 -232
l21 -19 0 160 c0 88 3 193 6 234 l6 74 47 -46 c57 -57 126 -77 215 -60 159 29
259 143 259 295 0 178 -132 300 -303 283 -31 -4 -65 -9 -76 -13 -39 -14 38 54
96 85 138 74 388 101 572 63 105 -22 221 -72 278 -120 l35 -30 -53 9 c-127 20
-236 -34 -295 -145 -18 -33 -22 -57 -22 -131 0 -78 4 -97 27 -141 49 -94 137
-150 250 -160 82 -8 139 8 189 53 l39 35 0 -88 c0 -49 3 -153 7 -232 l6 -143
24 28 c86 102 150 221 190 350 23 77 26 105 27 233 1 159 -12 226 -67 355 -90
212 -276 392 -491 476 -142 55 -330 72 -481 44z m-324 -426 c28 -30 28 -32 12
-45 -25 -19 -33 -17 -33 6 0 11 -4 20 -10 20 -5 0 -10 -7 -10 -15 0 -11 -7
-14 -27 -10 -25 5 -26 4 -10 -7 49 -34 48 -31 28 -57 l-18 -23 -21 22 c-59 63
-46 140 24 140 27 0 43 -8 65 -31z m1075 -4 c15 -24 15 -28 0 -69 -24 -63 -38
-71 -66 -41 l-23 25 36 0 c20 0 37 5 37 10 0 6 -11 10 -25 10 -22 0 -24 3 -18
30 8 41 -3 38 -22 -5 -14 -36 -15 -36 -40 -19 -32 21 -32 27 6 58 41 35 92 35
115 1z m-841 -160 c33 -21 57 -47 79 -85 28 -49 31 -64 31 -135 0 -94 -20
-140 -84 -198 -49 -44 -96 -65 -167 -73 -79 -10 -120 2 -169 47 -62 57 -90
126 -89 219 1 167 103 262 275 257 64 -2 83 -6 124 -32z m731 20 c106 -32 174
-127 174 -245 0 -84 -21 -146 -67 -200 -45 -53 -85 -70 -161 -70 -165 0 -284
116 -284 277 0 182 156 292 338 238z"/>
<path d="M476 1029 c-31 -25 -34 -61 -6 -89 41 -41 100 -13 100 48 0 58 -46
79 -94 41z m34 -24 c0 -8 -7 -15 -15 -15 -8 0 -15 7 -15 15 0 8 7 15 15 15 8
0 15 -7 15 -15z"/>
<path d="M1316 1029 c-48 -38 -24 -109 37 -109 50 0 77 79 39 113 -25 22 -44
21 -76 -4z m32 -21 c-6 -18 -28 -21 -28 -4 0 9 7 16 16 16 9 0 14 -5 12 -12z"/>
<path d="M863 875 c-21 -9 -33 -21 -33 -33 0 -10 -11 -29 -24 -42 -50 -46 -38
-130 19 -130 20 0 25 -5 25 -25 0 -35 33 -65 73 -65 40 0 64 23 73 68 4 21 12
32 24 32 25 0 50 32 50 64 0 18 -12 40 -34 62 -19 19 -36 41 -40 49 -12 33
-80 43 -133 20z m175 -135 c-3 -24 -6 -25 -58 -22 -30 2 -79 -3 -108 -9 -45
-11 -55 -10 -63 2 -10 17 -2 47 18 71 14 16 18 16 36 3 30 -21 80 -19 108 4
24 19 24 19 47 -2 15 -14 22 -30 20 -47z m-122 -85 c7 -40 2 -50 -21 -42 -15
6 -21 57 -8 70 14 14 22 6 29 -28z m54 11 c0 -35 -10 -56 -26 -56 -10 0 -14
12 -14 40 0 33 3 40 20 40 14 0 20 -7 20 -24z"/>
</g>
</svg>
