<?xml version="1.0" standalone="no"?>
<!DOCTYPE svg PUBLIC "-//W3C//DTD SVG 20010904//EN"
 "http://www.w3.org/TR/2001/REC-SVG-20010904/DTD/svg10.dtd">
<svg version="1.0" xmlns="http://www.w3.org/2000/svg"
 width="2560.000000pt" height="648.000000pt" viewBox="0 0 2560.000000 648.000000"
 preserveAspectRatio="xMidYMid meet">
<metadata>
Created by potrace 1.16, written by Peter Selinger 2001-2019
</metadata>
<g transform="translate(0.000000,648.000000) scale(0.100000,-0.100000)"
fill="#000000" stroke="none">
<path d="M1657 6256 c-74 -31 -86 -41 -109 -95 -23 -53 -73 -249 -87 -341 -11
-67 -291 -1469 -606 -3030 -226 -1123 -324 -1628 -332 -1712 -7 -83 6 -118 55
-145 35 -20 56 -21 442 -24 461 -4 478 -2 543 70 47 52 50 66 326 1451 126
635 245 1223 265 1305 19 83 40 187 46 233 6 46 24 116 41 157 16 40 29 82 29
92 0 25 35 79 59 92 25 14 54 -11 70 -59 29 -89 82 -362 101 -522 11 -98 32
-249 46 -335 14 -87 34 -228 45 -313 10 -85 29 -204 40 -265 27 -147 41 -242
84 -565 9 -63 22 -142 29 -175 8 -33 22 -114 30 -180 9 -66 32 -221 51 -345
19 -124 39 -264 45 -312 24 -195 57 -274 135 -316 40 -22 251 -27 531 -14 230
11 249 16 312 76 39 36 123 168 182 287 23 46 61 115 83 153 22 38 48 81 56
97 100 181 206 377 285 528 53 101 132 243 175 315 43 72 94 165 113 207 19
41 52 102 73 135 38 57 124 213 210 379 78 150 194 363 218 402 14 22 44 77
67 124 23 46 64 122 90 169 26 47 87 155 135 240 111 197 165 278 209 312 58
46 66 34 66 -101 0 -79 -6 -141 -19 -196 -25 -107 -57 -267 -76 -390 -12 -77
-359 -1809 -497 -2485 -24 -118 -21 -164 16 -203 39 -42 95 -47 515 -47 l387
0 52 26 c56 28 94 78 113 149 6 21 57 274 114 563 57 290 277 1391 490 2447
255 1270 388 1951 392 2010 5 87 5 91 -21 122 -15 18 -44 37 -64 43 -25 8
-260 10 -737 8 l-700 -3 -47 -28 c-60 -36 -107 -88 -150 -168 -45 -81 -205
-386 -441 -839 -205 -394 -756 -1444 -876 -1670 -43 -80 -125 -240 -184 -357
-130 -256 -201 -382 -230 -405 -12 -10 -35 -20 -51 -24 -25 -5 -34 -1 -56 22
-30 34 -59 173 -85 409 -9 77 -36 260 -61 406 -53 322 -104 677 -139 974 -33
279 -57 454 -100 730 -59 371 -64 406 -80 535 -25 197 -45 303 -64 335 -9 17
-37 41 -62 55 l-44 25 -695 2 -695 3 -58 -24z"/>
<path d="M24129 4889 c-15 -15 -19 -30 -17 -62 l3 -42 67 -3 c36 -2 71 -8 76
-15 6 -8 -5 -87 -35 -236 -24 -123 -42 -230 -39 -237 7 -19 129 -19 145 0 6 7
31 114 56 236 25 122 50 229 56 236 8 9 34 14 80 14 77 0 94 11 105 67 11 61
2 63 -253 63 -212 0 -224 -1 -244 -21z"/>
<path d="M24717 4893 c-17 -20 -132 -576 -123 -599 7 -19 119 -20 134 -1 6 7
27 86 45 176 19 89 37 165 41 168 13 13 20 -12 47 -174 17 -97 34 -170 41
-175 20 -12 82 -10 101 5 9 6 55 82 103 167 47 85 93 164 100 175 13 18 14 18
14 -11 0 -17 -12 -88 -26 -157 -14 -70 -24 -139 -22 -155 3 -25 6 -27 58 -30
30 -1 61 2 69 7 20 13 134 591 119 608 -14 17 -168 18 -191 1 -9 -7 -61 -89
-116 -183 -54 -93 -103 -171 -109 -173 -14 -4 -25 39 -53 207 -13 73 -29 140
-37 147 -22 22 -174 19 -195 -3z"/>
<path d="M17790 4890 c-52 -4 -122 -14 -155 -23 -33 -8 -109 -25 -170 -37
-134 -26 -257 -71 -440 -160 -418 -204 -764 -510 -1033 -911 -100 -150 -132
-212 -207 -404 -122 -311 -162 -451 -192 -680 -30 -236 -20 -600 22 -767 46
-181 126 -365 211 -484 126 -178 344 -365 500 -429 38 -15 103 -43 144 -60 68
-30 245 -75 410 -105 151 -28 560 -18 791 19 292 47 655 201 894 380 154 115
327 295 483 501 123 162 165 269 128 325 -32 49 -90 56 -415 55 -380 -1 -376
0 -543 -163 -158 -155 -380 -272 -603 -318 -34 -7 -137 -13 -240 -13 -159 -1
-189 2 -256 22 -41 12 -83 22 -93 22 -60 0 -229 128 -295 224 -66 96 -116 307
-109 464 3 82 5 91 39 137 19 28 55 61 80 75 l44 25 1255 5 c1169 5 1258 6
1299 23 66 26 106 60 131 114 26 55 49 173 50 250 0 29 8 87 17 129 15 69 15
99 5 298 -17 308 -48 466 -126 642 -90 203 -112 244 -172 319 -161 203 -390
359 -669 453 -216 74 -461 96 -785 72z m240 -815 c181 -41 329 -152 404 -305
55 -112 82 -311 52 -383 -17 -41 -66 -88 -108 -104 -24 -8 -220 -12 -728 -12
-651 -1 -698 1 -735 18 -55 25 -69 45 -68 99 1 62 24 119 89 220 200 309 539
493 899 486 68 -1 152 -9 195 -19z"/>
<path d="M9385 4874 c-44 -7 -131 -20 -193 -28 -114 -15 -394 -95 -551 -157
-234 -93 -483 -269 -620 -438 -106 -131 -161 -215 -220 -335 -58 -119 -74
-174 -66 -219 8 -42 22 -60 65 -82 32 -18 62 -19 415 -17 427 3 464 8 519 66
17 18 59 77 93 132 71 115 132 180 223 239 139 91 230 118 445 137 192 16 354
-4 462 -57 87 -43 153 -112 183 -193 19 -48 21 -72 18 -157 -3 -55 -9 -109
-15 -120 -6 -11 -16 -38 -22 -60 -24 -90 -173 -228 -296 -274 -98 -37 -626
-131 -735 -131 -30 0 -73 -5 -96 -10 -23 -5 -97 -16 -165 -25 -370 -45 -672
-126 -913 -247 -167 -83 -326 -218 -448 -378 -117 -155 -227 -430 -254 -633
-8 -62 -16 -116 -18 -122 -8 -22 16 -235 35 -310 39 -158 84 -248 170 -340
120 -127 295 -220 503 -265 294 -63 658 -58 978 15 202 46 334 94 530 193 206
104 217 106 269 51 15 -16 35 -52 44 -79 19 -58 78 -116 127 -125 18 -3 202
-5 408 -3 367 3 376 3 417 26 81 43 91 76 103 337 11 243 22 308 279 1580 99
490 187 941 195 1003 30 214 15 351 -53 497 -140 297 -485 476 -1022 530 -187
19 -672 18 -794 -1z m515 -2194 c24 -17 25 -20 22 -121 -4 -112 -25 -199 -90
-384 -98 -278 -289 -490 -527 -586 -216 -86 -481 -108 -675 -56 -181 48 -232
82 -286 191 -28 58 -38 91 -42 144 -9 131 43 295 127 399 54 66 180 162 274
207 84 41 357 112 480 126 144 17 426 63 572 94 70 15 110 11 145 -14z"/>
<path d="M22490 4869 c-69 -10 -165 -33 -215 -50 -186 -64 -454 -207 -560
-300 -93 -81 -152 -102 -195 -69 -24 18 -25 24 -25 122 -1 125 -15 172 -58
194 -47 25 -249 37 -512 31 -249 -6 -308 -16 -363 -62 -16 -14 -37 -40 -45
-58 -23 -48 -123 -528 -407 -1952 -138 -693 -269 -1347 -291 -1453 -44 -208
-45 -250 -9 -310 35 -56 39 -57 465 -57 375 0 392 1 435 21 61 28 106 77 130
141 11 29 92 417 181 861 176 886 218 1076 289 1322 78 272 131 379 254 507
166 176 360 266 627 294 88 9 124 9 149 0 18 -6 47 -11 65 -11 17 0 58 -9 89
-20 182 -62 277 -186 306 -400 23 -170 -15 -411 -250 -1580 -104 -519 -190
-962 -190 -985 0 -54 27 -105 70 -130 33 -19 54 -20 412 -23 395 -3 428 0 489
41 49 33 75 88 105 218 44 195 271 1315 344 1699 39 201 83 428 99 505 71 337
78 596 25 865 -30 153 -144 333 -277 440 -77 62 -238 143 -337 170 -201 54
-547 66 -800 29z"/>
<path d="M14590 4203 c-318 -333 -748 -879 -967 -1228 -224 -357 -386 -693
-497 -1031 -32 -96 -43 -117 -81 -154 -35 -34 -48 -41 -57 -32 -9 9 -7 20 11
49 58 98 109 228 138 356 21 96 21 347 0 477 -26 152 -110 470 -125 470 -4 0
-20 -20 -35 -45 -42 -66 -46 -62 -18 18 21 62 24 90 24 195 0 120 -12 172 -28
121 -9 -29 -66 -132 -70 -127 -2 2 6 30 18 63 41 118 18 355 -51 515 l-19 45
-26 -50 c-23 -45 -77 -125 -77 -114 0 2 10 29 21 59 28 72 35 202 20 356 -7
65 -14 126 -17 135 -4 14 -36 9 -260 -35 l-256 -51 6 -65 c39 -397 138 -971
251 -1460 80 -349 300 -1169 340 -1272 8 -21 -4 -23 -28 -6 -19 14 -75 202
-182 608 -156 590 -272 1143 -339 1610 -21 145 -64 545 -66 603 0 13 -4 15
-17 7 -10 -5 -73 -20 -140 -33 l-122 -24 -4 41 c-2 23 -2 -33 0 -124 18 -894
157 -1679 393 -2222 43 -98 144 -299 175 -348 14 -22 25 -41 25 -43 0 -1 -57
-1 -127 1 -135 4 -145 -1 -58 -33 137 -49 355 -185 355 -222 0 -16 -89 -67
-146 -83 -74 -21 -52 -33 51 -28 52 2 95 2 95 0 0 -2 -9 -15 -20 -29 -24 -31
-82 -180 -78 -200 2 -10 17 6 38 38 37 58 122 149 157 167 20 11 22 7 45 -67
l25 -78 -116 -234 c-137 -277 -331 -683 -331 -692 0 -4 15 -7 34 -7 33 0 34 2
87 113 29 61 121 249 204 416 l151 304 112 -334 c158 -474 166 -493 191 -497
17 -3 21 2 21 27 0 16 -47 168 -104 338 -56 169 -120 362 -140 428 l-37 120
51 97 50 96 42 -16 c44 -17 92 -80 119 -154 7 -21 17 -38 22 -38 17 0 -2 121
-28 178 -21 46 -22 53 -7 47 9 -4 73 -9 142 -12 230 -10 370 36 498 162 39 40
72 78 72 83 0 6 -22 -3 -50 -20 -39 -24 -64 -32 -120 -36 -38 -2 -70 -1 -70 4
0 5 36 22 80 37 136 48 250 136 365 280 21 26 36 49 34 52 -2 2 -35 -16 -73
-40 -102 -64 -210 -97 -321 -98 -49 -1 -117 5 -150 13 l-60 13 82 12 c165 25
373 114 522 225 143 107 301 288 427 493 55 87 189 337 182 337 -2 0 -35 -7
-73 -15 -97 -20 -109 -18 -45 8 31 13 81 40 112 61 78 51 221 206 206 221 -3
3 -22 -2 -44 -11 -44 -19 -131 -44 -154 -44 -8 0 19 16 60 36 123 59 182 113
277 256 59 90 139 245 131 254 -2 2 -27 -5 -55 -16 -28 -10 -75 -22 -104 -26
l-54 -6 80 40 c56 28 102 62 149 108 74 74 236 271 236 288 0 12 -468 321
-486 321 -34 0 -452 -568 -748 -1017 -332 -505 -773 -1264 -1043 -1795 -49
-95 -91 -173 -94 -173 -3 0 -13 6 -22 13 -16 11 -12 23 49 137 432 812 868
1540 1239 2070 138 197 393 534 504 665 55 66 101 126 101 133 0 7 4 11 9 7 5
-3 12 -1 16 5 4 6 11 7 17 4 7 -4 8 -2 4 5 -5 8 -12 9 -20 2 -9 -7 -48 13
-139 74 -70 47 -133 85 -141 85 -8 0 -65 -53 -126 -117z"/>
</g>
</svg>
