<?xml version="1.0" standalone="no"?>
<!DOCTYPE svg PUBLIC "-//W3C//DTD SVG 20010904//EN"
 "http://www.w3.org/TR/2001/REC-SVG-20010904/DTD/svg10.dtd">
<svg version="1.0" xmlns="http://www.w3.org/2000/svg"
 width="2048.000000pt" height="2048.000000pt" viewBox="0 0 2048.000000 2048.000000"
 preserveAspectRatio="xMidYMid meet">
<metadata>
Created by potrace 1.16, written by Peter Selinger 2001-2019
</metadata>
<g transform="translate(0.000000,2048.000000) scale(0.100000,-0.100000)"
fill="#000000" stroke="none">
<path d="M1240 10740 l0 -3000 2500 0 2500 0 0 -500 0 -500 2000 0 2000 0 0
500 0 500 4500 0 4500 0 0 3000 0 3000 -9000 0 -9000 0 0 -3000z m5000 0 l0
-2000 -500 0 -500 0 0 1500 0 1500 -500 0 -500 0 0 -1500 0 -1500 -1000 0
-1000 0 0 2000 0 2000 2000 0 2000 0 0 -2000z m5000 0 l0 -2000 -1000 0 -1000
0 0 -500 0 -500 -1000 0 -1000 0 0 2500 0 2500 2000 0 2000 0 0 -2000z m7000
0 l0 -2000 -500 0 -500 0 0 1500 0 1500 -500 0 -500 0 0 -1500 0 -1500 -500 0
-500 0 0 1500 0 1500 -500 0 -500 0 0 -1500 0 -1500 -1000 0 -1000 0 0 2000 0
2000 3000 0 3000 0 0 -2000z"/>
<path d="M9240 10740 l0 -1000 500 0 500 0 0 1000 0 1000 -500 0 -500 0 0
-1000z"/>
</g>
</svg>
