<?xml version="1.0" encoding="UTF-8"?>
<!DOCTYPE svg PUBLIC "-//W3C//DTD SVG 1.1//EN" "http://www.w3.org/Graphics/SVG/1.1/DTD/svg11.dtd">
<svg xmlns="http://www.w3.org/2000/svg" version="1.1" width="193px" height="261px" style="shape-rendering:geometricPrecision; text-rendering:geometricPrecision; image-rendering:optimizeQuality; fill-rule:evenodd; clip-rule:evenodd" xmlns:xlink="http://www.w3.org/1999/xlink">
<g><path style="opacity:1" fill="#fefefe" d="M -0.5,-0.5 C 59.8333,-0.5 120.167,-0.5 180.5,-0.5C 128.663,12.7038 76.6631,25.7038 24.5,38.5C 16.1401,69.283 7.80674,99.9497 -0.5,130.5C -0.5,86.8333 -0.5,43.1667 -0.5,-0.5 Z"/></g>
<g><path style="opacity:1" fill="#ee689f" d="M 180.5,-0.5 C 181.167,-0.5 181.833,-0.5 182.5,-0.5C 164.656,34.6869 146.656,69.8536 128.5,105C 149.167,118.333 169.833,131.667 190.5,145C 191.517,146.049 191.684,147.216 191,148.5C 177.167,168.333 163.333,188.167 149.5,208C 116.122,225.02 83.1217,242.52 50.5,260.5C 50.1667,260.5 49.8333,260.5 49.5,260.5C 62.8847,233.398 76.5514,206.398 90.5,179.5C 60.6449,163.071 30.3116,147.405 -0.5,132.5C -0.5,131.833 -0.5,131.167 -0.5,130.5C 7.80674,99.9497 16.1401,69.283 24.5,38.5C 76.6631,25.7038 128.663,12.7038 180.5,-0.5 Z"/></g>
<g><path style="opacity:1" fill="#fefefe" d="M 33.5,64.5 C 79.1718,92.6463 124.505,121.48 169.5,151C 160.956,163.255 152.289,175.421 143.5,187.5C 101.806,165.987 60.1389,144.487 18.5,123C 24.0522,103.624 29.0522,84.1241 33.5,64.5 Z"/></g>
<g><path style="opacity:1" fill="#fefefe" d="M -0.5,132.5 C 30.3116,147.405 60.6449,163.071 90.5,179.5C 76.5514,206.398 62.8847,233.398 49.5,260.5C 32.8333,260.5 16.1667,260.5 -0.5,260.5C -0.5,217.833 -0.5,175.167 -0.5,132.5 Z"/></g>
<g><path style="opacity:1" fill="#fefefe" d="M 182.5,-0.5 C 185.833,-0.5 189.167,-0.5 192.5,-0.5C 192.5,86.5 192.5,173.5 192.5,260.5C 145.167,260.5 97.8333,260.5 50.5,260.5C 83.1217,242.52 116.122,225.02 149.5,208C 163.333,188.167 177.167,168.333 191,148.5C 191.684,147.216 191.517,146.049 190.5,145C 169.833,131.667 149.167,118.333 128.5,105C 146.656,69.8536 164.656,34.6869 182.5,-0.5 Z"/></g>
</svg>
