<?xml version="1.0" standalone="no"?>
<!DOCTYPE svg PUBLIC "-//W3C//DTD SVG 20010904//EN"
 "http://www.w3.org/TR/2001/REC-SVG-20010904/DTD/svg10.dtd">
<svg version="1.0" xmlns="http://www.w3.org/2000/svg"
 width="949.000000pt" height="712.000000pt" viewBox="0 0 949.000000 712.000000"
 preserveAspectRatio="xMidYMid meet">

<g transform="translate(0.000000,712.000000) scale(0.100000,-0.100000)"
fill="#000000" stroke="none">
<path d="M2120 5572 l0 -931 783 -446 c430 -246 797 -456 815 -467 l32 -20 0
934 0 933 -806 460 c-443 253 -809 462 -814 463 -6 2 -10 -342 -10 -926z"/>
<path d="M3930 4532 l0 -931 783 -446 c430 -246 797 -456 815 -467 l32 -20 0
934 0 933 -806 460 c-443 253 -809 462 -814 463 -6 2 -10 -342 -10 -926z"/>
<path d="M6558 4997 l-808 -462 0 -933 0 -932 38 19 c20 11 386 219 812 463
l775 444 3 932 c1 513 -1 932 -5 931 -5 0 -371 -208 -815 -462z"/>
<path d="M3930 2458 l0 -933 807 -460 c443 -253 810 -462 815 -463 4 -2 7 416
6 929 l-3 932 -785 449 c-432 247 -797 456 -812 464 l-28 15 0 -933z"/>
</g>
</svg>
